<?xml version="1.0" encoding="utf-8"?>
<!-- Generator: Adobe Illustrator 26.0.3, SVG Export Plug-In . SVG Version: 6.00 Build 0)  -->
<svg version="1.0" id="katman_1" xmlns="http://www.w3.org/2000/svg" xmlns:xlink="http://www.w3.org/1999/xlink" x="0px" y="0px"
	 viewBox="0 0 600 450" style="enable-background:new 0 0 600 450;" xml:space="preserve">
<style type="text/css">
	.st0{fill:#37404E;}
</style>
<path class="st0" d="M189.8,142.6h27.6v165.5h-27.6V142.6z M231.2,142.6H245v165.5h-13.8V142.6z M258.8,142.6h41.4v165.5h-41.4
	V142.6z M313.9,142.6h13.8v165.5h-13.8V142.6z M355.3,142.6h27.6v165.5h-27.6V142.6z M396.6,142.6h13.8v165.5h-13.8V142.6z
	 M162.2,115.1v55.2h-27.6v-55.2c0-7.3,2.9-14.3,8.1-19.5c5.2-5.2,12.2-8.1,19.5-8.1h55.2v27.6H162.2z M438,87.5
	c7.3,0,14.3,2.9,19.5,8.1c5.2,5.2,8.1,12.2,8.1,19.5v55.2H438v-55.2h-55.2V87.5H438z M162.2,280.5v55.2h55.2v27.6h-55.2
	c-7.3,0-14.3-2.9-19.5-8.1c-5.2-5.2-8.1-12.2-8.1-19.5v-55.2H162.2z M438,335.7v-55.2h27.6v55.2c0,7.3-2.9,14.3-8.1,19.5
	c-5.2,5.2-12.2,8.1-19.5,8.1h-55.2v-27.6H438z"/>
</svg>
