<?xml version="1.0" encoding="iso-8859-1"?>
<!-- Uploaded to: SVG Repo, www.svgrepo.com, Generator: SVG Repo Mixer Tools -->
<!DOCTYPE svg PUBLIC "-//W3C//DTD SVG 1.1//EN" "http://www.w3.org/Graphics/SVG/1.1/DTD/svg11.dtd">
<svg fill="#000000" height="800px" width="800px" version="1.1" id="Capa_1" xmlns="http://www.w3.org/2000/svg" xmlns:xlink="http://www.w3.org/1999/xlink" 
	 viewBox="0 0 479.794 479.794" xml:space="preserve">
<g>
	<path d="M27.381,95.08C13.017,109.445,4.147,128.537,1.14,151.708c-2.785,21.456-0.459,45.507,6.914,71.483
		c14.902,52.506,48.675,106.988,95.097,153.411c46.366,46.366,100.725,79.962,153.062,94.598
		c18.508,5.176,36.041,7.775,52.362,7.775c6.485,0,12.782-0.411,18.868-1.233c23.059-3.115,42.029-11.975,56.387-26.332
		l36.841-36.842c4.574-4.572,7.093-10.652,7.093-17.12c0-6.467-2.52-12.546-7.091-17.116l-88.063-88.064
		c-4.37-4.371-10.114-6.777-16.174-6.777c-6.425,0-12.604,2.641-17.401,7.437c0,0-48.676,48.652-64.885,64.887
		c-0.317,0.318-1.027,0.584-1.699-0.088c-27.84-27.84-83.141-83.135-111.136-111.13c-0.375-0.375-0.279-1.131,0.064-1.475
		c16.254-16.254,64.924-64.926,64.924-64.926c4.523-4.523,7.091-10.462,7.229-16.723c0.145-6.489-2.323-12.608-6.946-17.229
		L98.522,58.181c-4.573-4.574-10.652-7.094-17.12-7.094c-6.467,0-12.546,2.519-17.117,7.092
		C64.285,58.179,36.606,85.855,27.381,95.08z M131.309,200.584l-87.604-87.589c-0.235-0.235-0.354-0.522-0.354-0.854
		c0-0.332,0.119-0.619,0.354-0.854l36.845-36.846c0.234-0.234,0.521-0.354,0.852-0.354c0.332,0,0.618,0.119,0.854,0.355
		c0,0,66.062,65.454,87.704,87.647c0.321,0.33,0.935,0.984,0.077,1.842l-36.845,36.845
		C133.193,200.777,132.388,201.553,131.309,200.584z M261.341,363.149l85.639,85.647c-21.843,9.289-51.32,9.554-84.573,0.255
		c-48.593-13.589-99.375-45.094-142.992-88.711C75.72,316.644,44.028,265.707,30.18,216.912c-9.512-33.513-9.38-63.159-0.128-85.044
		l85.455,85.457c0.191,0.191,0.389,0.373,0.584,0.557l-11.069,11.069c-9.499,9.501-9.622,24.26-0.281,33.599l112.322,112.317
		c4.352,4.352,9.984,6.706,15.979,6.706c0.417,0,0.837-0.012,1.257-0.034c5.902-0.322,11.579-2.926,15.982-7.33L261.341,363.149z
		 M278.454,346.036c1.548-1.717,36.645-36.647,36.645-36.647c0.447-0.448,1.32-0.727,2.008-0.102
		c0.006,0.006-0.77-0.764-0.763-0.757l88.066,88.066c0.233,0.233,0.353,0.521,0.353,0.852c0,0.331-0.119,0.618-0.354,0.854
		l-36.843,36.844l-0.001,0.001c-0.469,0.47-1.236,0.469-1.707-0.001l-87.376-87.374C277.7,346.991,278.164,346.358,278.454,346.036z
		"/>
	<path d="M342.406,0.819c-75.755,0-137.387,52.474-137.387,116.973c0,27.824,11.453,54.41,32.387,75.492
		c-3.219,9.921-15.836,28.359-29.288,34.605c-4.382,2.035-7.025,6.591-6.616,11.405c0.41,4.814,3.784,8.858,8.447,10.124
		c0.944,0.256,9.587,2.504,22.07,2.504c17.546,0,41.964-4.422,62.413-24.476c15.313,4.859,31.414,7.318,47.974,7.318
		c75.756,0,137.388-52.475,137.388-116.974C479.794,53.292,418.162,0.819,342.406,0.819z M342.406,211.765
		c-16.463,0-32.358-2.824-47.245-8.393c-4.527-1.694-9.629-0.375-12.77,3.297c-12.014,14.049-26.723,19.619-39.372,21.467
		c10.618-12.642,18.26-27.85,18.175-39.088c-0.024-3.204-1.384-6.252-3.752-8.411c-18.974-17.3-29.423-39.619-29.423-62.846
		c0-51.816,51.313-93.973,114.387-93.973s114.388,42.156,114.388,93.973C456.794,169.609,405.479,211.765,342.406,211.765z"/>
</g>
</svg>